<?xml version="1.0" encoding="utf-8"?>
<!-- Generator: Adobe Illustrator 19.2.0, SVG Export Plug-In . SVG Version: 6.00 Build 0)  -->
<svg version="1.1" id="Слой_1" xmlns="http://www.w3.org/2000/svg" xmlns:xlink="http://www.w3.org/1999/xlink" x="0px" y="0px"
	 viewBox="0 0 700 191.3" style="enable-background:new 0 0 700 191.3;" xml:space="preserve">
<style type="text/css">
	.st0{fill:#3D435E;}
	.st1{fill:#3D435D;}
	.st2{fill:#FDFDFD;}
</style>
<g>
	<g>
		<path class="st0" d="M700,108c-10,12.2-19.7,24.6-30.1,36.5c-4,4.5-9.4,8-14.5,11.4c-4.6,3.1-9.9,5.5-15.4,2.1
			c-6-3.7-8.7-9.4-8.9-16.4c0-1.1,0-2.2,0-4.2c-2.8,2.7-4.9,5.2-7.5,7.1c-5.5,3.9-11,8.3-17.1,10.9c-10.7,4.6-19.3,0.1-23.3-10.9
			c-1-2.6-1.5-5.4-2.4-9c-1.4,1.6-2.4,3-3.6,4.1c-6.9,6-13.4,12.4-20.8,17.7c-5.8,4.1-12.7,3.9-18.7-0.6c-5.7-4.3-7.1-10.4-5.5-17
			c2.3-9.7,5.1-19.3,7.4-29c1-4.2,1.9-8.5,2-12.8c0.1-2.9-0.7-7.8-2.2-8.4c-2.5-0.9-6.3,0.6-9.1,2c-2.6,1.3-4.7,3.7-6.8,5.8
			c-8.8,9.4-15.6,19.8-17.2,33c-0.6,5.1-2.1,10.1-3.3,15.1c-1.9,8.5-9.5,13.5-19.5,12.2c2.2-9.1,4.4-18.1,6.8-27.9
			c-6.3,7.3-11.7,14.3-18,20.4c-3.3,3.2-7.9,5.7-12.4,6.6c-10.2,2.2-15.3-2.4-16.8-13.7c-0.2-1.7-0.2-3.5,0.4-4.2
			c-4.3,3.6-8.1,7.8-12.9,10.6c-5.3,3.2-11.2,5.8-17.2,7.5c-7.9,2.2-14.2-0.9-16.4-8.8c-1.8-6.4-2.7-13.5-1.7-20
			c3.3-22.1,14.5-39.8,32.4-53.1c6-4.5,12.6-8.3,20.8-5.5c8.3,2.8,10.6,7.8,7.1,15.8c-0.3,0.7-0.6,1.4-1,2.5
			c2.8-0.2,5.3-0.3,8.6-0.5c-0.2,2.8-0.2,5.4-0.7,7.9c-2.3,11.7-4.9,23.5-7.1,35.2c-0.6,3.1-0.8,6.3-0.5,9.4c0.6,6,5.1,8,9.9,4.6
			c2.3-1.6,4.5-3.5,6.3-5.6c7.6-9,15.1-18.2,22.5-27.4c1.2-1.5,1.7-3.6,2.1-5.5c1.6-6.6,2.9-13.3,4.5-19.9
			c2.3-9.6,10.4-12.7,19.7-7.6c-1.2,3.9-2.4,8-4.1,13.5c2.1-1.9,3.5-3,4.7-4.2c5.9-6.5,12.4-12.2,21.3-14c7.5-1.5,13.1,1.6,15.8,8.8
			c2.3,6.3,2.3,12.7,0.7,19.2c-2.9,11.1-6,22.1-8.6,33.3c-0.8,3.4-1.2,8.7,0.7,10.4c3.1,2.8,7.4-0.2,10.1-2.9
			c7-6.9,13.7-14,20.3-21.3c1.1-1.2,1.4-3.3,1.9-5c3.3-13.4,9.2-25.3,19.4-34.8c1.6-1.5,3.3-2.8,5.1-4c16.3-10.3,27.8-8.7,34.4,11.1
			c1.1-4.3,1.9-7.8,2.8-11.2c5.3-20.3,10.5-40.5,15.9-60.8c1.5-5.7,9.8-10.2,15-7.4c2.2,1.2,4,4.8,4.4,7.5
			c1.5,13.3-0.6,26.2-4.5,38.9c-6.1,20.2-15.9,38.6-25.6,57.2c-4.2,8-4.3,18.5-4.9,28c-0.3,5.5,5.3,7.7,10.3,4.2
			c6-4.2,11.7-8.9,16.7-14.1c7.3-7.5,13.9-15.7,20.7-23.7c2-2.3,3.8-4.8,7.4-3.1C700,105.3,700,106.7,700,108z M638,104.1
			c-0.5,0.2-1,0.3-1.5,0.5c-1.1-1.7-2.7-3.4-3.1-5.3c-1.1-4.5-1.1-9.3-2.6-13.6c-2-5.7-6.2-6.9-11.6-3.9c-1.6,0.9-3.1,2-4.3,3.3
			c-10,10.5-16.6,22.9-18.9,37.2c-0.7,4.2-0.5,8.7,0.3,12.9c1.3,7.2,7.9,10.9,13.8,7.2C624.5,133.6,636.9,122.8,638,104.1z
			 M441.6,92.5c-0.3-4.2-0.6-7.4-0.8-10.5c-2.8,1.3-6.3,2-8.3,4.1c-7.6,7.8-13.5,17-16.3,27.5c-1.8,6.8-2.7,14-2.9,21
			c-0.2,6.3,4.1,8.7,10.2,6.5c1.4-0.5,2.8-1.2,4-2c7.9-5.5,14.5-12.1,16.3-22.2c1.5-8.4,3.5-16.7,5.4-25.6
			C445.4,91.9,443.1,92.3,441.6,92.5z"/>
		<path class="st1" d="M98,0c4,1.8,8.4,3,12,5.4c15.3,10.4,19.6,25.9,17.4,42.9c-4.6,34.8-34.4,64.3-70.2,70.7
			c-4.7,0.8-9.5,1.4-14.5,2.1C39.8,134,37.1,147,34,159.9c-1.6,6.8-3.6,13.5-6.2,20c-5.1,12.7-15.9,15.1-26.2,6.1
			c-0.5-0.4-1.1-0.6-1.6-0.9c0-0.3,0-0.7,0-1c2.7-3.3,6-6.3,7.9-10c2.9-5.9,5.3-12.2,7-18.6c8.2-31.2,16.1-62.5,24.2-93.7
			c3.3-12.7,6.7-25.3,10.1-38c-0.3-0.3-0.6-0.5-1-0.8c-6.8,5.9-13.6,11.9-20.3,17.8c-7.3-7.4-9.8-15.5,1.4-22.4
			C40.5,11.5,51.9,5.7,64.7,2.8C68.5,2,72.2,0.9,76,0C83.3,0,90.7,0,98,0z M43.8,111.3c5.1-1.4,8.9-2.2,12.5-3.3
			c31.6-10.3,52.5-38.2,51.6-69.5c-0.3-11.3-4.2-21-15.5-25.7c-10.5-4.4-20.7-2.3-29.1,1.9c0,3.9,0.5,6.7-0.1,9.4
			c-3.1,13.8-6.6,27.5-9.6,41.3C50.2,80.2,47.2,95.2,43.8,111.3z"/>
		<path class="st0" d="M352.7,131.7c-7.1,7.2-14.1,14.6-21.5,21.5c-6.4,6.1-14.1,8.3-22.5,4.3c-8.7-4.2-12.2-11.9-12.6-21.1
			c-0.2-3.9,0.5-7.9,0.9-12.7c-4.7,5.8-8.6,11.5-13.3,16.2c-6.3,6.3-13,12.5-20.3,17.6c-8.5,6-17.3,5.3-23.5-0.2
			c-6.5-5.8-8.1-15.1-3.7-24.3c3.7-7.6,8-15,12-22.4c0.9-1.6,1.8-3.2,2.4-4.9c2.3-6.4,0.5-8.8-6.2-8.8c-3.6,0-7.2-0.7-11.4-1.2
			c-4.9,8.2-10.1,17.1-15.4,25.9c-5.9,9.9-11.8,19.7-17.7,29.5c-0.6,1-1,2.4-1.9,2.9c-2,1.1-4.2,1.8-6.3,2.6c-0.1-2.1-1-4.6-0.2-6.3
			c5.8-12.5,12-24.9,18-37.3c0.9-1.9,1.7-3.8,3.2-7c-2.3,1.2-3.4,1.7-4.4,2.3c-7.3,4.3-14.6,8.5-21.8,13c-1.5,0.9-2.7,2.8-3.3,4.4
			c-3.4,10.3-8,20-17.2,26.2c-4.5,3.1-10.1,5.5-15.4,6.4c-14.8,2.5-24.8-6.5-26.6-22.7c-1.9-17.9,1.2-34.5,12.3-49.1
			c3.1-4.1,6.3-9,10.6-11.4c16.1-8.9,35.4,1,38.9,19.5c0.9,4.8,0.8,9.8,1.2,15.5c12.2-5.3,23.4-11.9,33.6-21.1
			c-4.7-4.7-4.3-10-1.5-14.8c2.8-5,6-10,10-14.1c5.1-5.1,12-3,15,3.6c2.2,4.9,1.8,9.7,0.2,14.6c-0.5,1.5-1.1,3-2,5.3
			c2.8,0.2,5,0.6,7.2,0.4c14-1.2,22.8,11.2,17,24.4c-1.9,4.4-4.9,8.3-7.5,12.4c-2.6,4.2-5.5,8.4-7.8,12.8c-2.2,4.1-3.7,9.1,0.2,12.5
			c3.8,3.4,8.8,1.5,12.5-1.3c5.3-4,10.7-8.1,15-13.1c7.1-8.1,13.8-16.7,19.9-25.6c2.3-3.5,2.6-8.4,3.5-12.8c2.6-12,5-24.1,7.5-36.1
			c0.2-1.1,0.3-2.3,0.4-4c-3.2,0.2-6.1,0.8-9,0.6c-6.9-0.7-13.8-1.5-20.6-2.8c-1.9-0.4-4.9-2.9-4.8-4.2c0.4-3.7,2.9-6.2,7.1-6.2
			C290.7,41,298.3,41,306,41c0.8,0,1.7-0.2,2.5-0.2c4.2,0,6.3-1.9,7.4-6.2c1.5-6.3,3.8-12.4,6.2-18.4c2.2-5.4,9.9-8.5,15-5.9
			c1.5,0.8,2.8,3.5,2.7,5.2c-0.2,7-0.9,13.9-1.4,20.3c11.9,2,23.9,4.1,37,6.3c0.9-8.5,1.8-17.7,2.9-28.2c4.1-0.9,9.4-2.2,14.7-3
			c4.3-0.6,6.3,2.1,5.8,6.1c-0.7,5.4-1.5,10.9-2.8,16.2c-9.9,39.5-20,79-30.1,118.4c-0.7,2.8-0.7,6.8-4.8,6.5
			c-3.2-0.2-6.7-1.4-9.4-3.2c-1.3-0.9-1.8-4.1-1.5-6.1c0.8-5.6,2.3-11.1,3.5-16.6c0-0.4,0.1-0.8,0.1-1.2
			C353.4,131.4,353.1,131.6,352.7,131.7z M336.3,49.5c-9.1,24.1-17.8,46.7-26.1,69.4c-1.6,4.4-2.4,9.4-2.2,14
			c0.5,12.1,9.9,16.9,19.6,9.7c7.1-5.3,13.2-12.1,19.7-18.3c8.1-7.8,13.9-16.7,15.1-28.3c0.5-5.1,2.3-10,3.5-15
			c2.1-9.1,4.2-18.3,6.5-28.4C359.4,51.5,347,50.4,336.3,49.5z M172.8,102.8c0.2-0.1,0.5-0.1,0.7-0.2c-1.1-4.7-1.7-9.5-3.3-13.9
			c-2.1-5.9-5.6-7.1-11.4-4.6c-10.1,4.3-12.5,20.2-4,27.4c4.4,3.7,10.1,4.9,14.9,3c2.1-0.8,2.2-6.6,3.1-10.1
			C172.9,103.8,172.8,103.3,172.8,102.8z M140.3,111.5c-3.2,9.4-4.1,18.2-1.6,27.1c2.4,8.5,9.2,11,16.6,6.2
			c6.3-4.1,9.5-10.3,12.2-17.9C154.2,129,145.9,122.9,140.3,111.5z"/>
		<path class="st2" d="M352.7,131.7c0.3-0.1,0.7-0.3,1-0.4c0,0.4-0.1,0.8-0.1,1.2C353.3,132.2,353,132,352.7,131.7z"/>
	</g>
</g>
</svg>
